HIERARCHY
ROOT Hips
{
	OFFSET -3.958830 18.904000 13.208200
	CHANNELS 6 Xposition Yposition Zposition Zrotation Yrotation Xrotation 
	JOINT LHipJoint
	{
		OFFSET 0.000000 0.000000 0.000000
		CHANNELS 3 Zrotation Yrotation Xrotation
		JOINT LeftUpLeg
		{
			OFFSET 1.800000 -1.400000 0.085000
			CHANNELS 3 Zrotation Yrotation Xrotation
			JOINT LeftLeg
			{
				OFFSET 2.215000 -6.000000 0.000000
				CHANNELS 3 Zrotation Yrotation Xrotation
				JOINT LeftFoot
				{
					OFFSET 2.500000 -6.900000 0.000000
					CHANNELS 3 Zrotation Yrotation Xrotation
					JOINT LeftToeBase
					{
						OFFSET 0.200000 -0.500000 1.950000
						CHANNELS 3 Zrotation Yrotation Xrotation
						End Site
						{
							OFFSET 0.000000 0.000000 0.000000
						}
					}
				}
			}
		}
	}
	JOINT RHipJoint
	{
		OFFSET 0.000000 0.000000 0.000000
		CHANNELS 3 Zrotation Yrotation Xrotation
		JOINT RightUpLeg
		{
			OFFSET -1.800000 -1.400000 0.085000
			CHANNELS 3 Zrotation Yrotation Xrotation
			JOINT RightLeg
			{
				OFFSET -2.215000 -6.000000 0.000000
				CHANNELS 3 Zrotation Yrotation Xrotation
				JOINT RightFoot
				{
					OFFSET -2.500000 -6.900000 0.000000
					CHANNELS 3 Zrotation Yrotation Xrotation
					JOINT RightToeBase
					{
						OFFSET -0.200000 -0.500000 1.950000
						CHANNELS 3 Zrotation Yrotation Xrotation
						End Site
						{
							OFFSET 0.000000 0.000000 0.000000
						}
					}
				}
			}
		}
	}
	JOINT LowerBack
	{
		OFFSET 0.000000 0.000000 0.000000
		CHANNELS 3 Zrotation Yrotation Xrotation
		JOINT Spine
		{
			OFFSET -0.087000 1.940000 -0.288900
			CHANNELS 3 Zrotation Yrotation Xrotation
			JOINT Spine1
			{
				OFFSET 0.000000 1.950000 0.060000
				CHANNELS 3 Zrotation Yrotation Xrotation
				JOINT Neck
				{
					OFFSET 0.000000 0.000000 0.000000
					CHANNELS 3 Zrotation Yrotation Xrotation
					JOINT Neck1
					{
						OFFSET 0.000000 1.600000 0.340000
						CHANNELS 3 Zrotation Yrotation Xrotation
						JOINT Head
						{
							OFFSET 0.000000 1.667000 -0.240000
							CHANNELS 3 Zrotation Yrotation Xrotation
							End Site
							{
								OFFSET 0.000000 0.000000 0.000000
							}
						}
					}
				}
				JOINT LeftShoulder
				{
					OFFSET 0.000000 0.000000 0.000000
					CHANNELS 3 Zrotation Yrotation Xrotation
					JOINT LeftArm
					{
						OFFSET 2.700000 1.550000 -0.730000
						CHANNELS 3 Zrotation Yrotation Xrotation
						JOINT LeftForeArm
						{
							OFFSET 5.450000 0.000000 0.000000
							CHANNELS 3 Zrotation Yrotation Xrotation
							JOINT LeftHand
							{
								OFFSET 3.450000 0.000000 0.000000
								CHANNELS 3 Zrotation Yrotation Xrotation
								JOINT LeftHandIndex1
								{
									OFFSET 0.750000 0.000000 0.000000
									CHANNELS 3 Zrotation Yrotation Xrotation
									End Site
									{
										OFFSET 0.000000 0.000000 0.000000
									}
								}
							}
						}
					}
				}
				JOINT RightShoulder
				{
					OFFSET 0.000000 0.000000 0.000000
					CHANNELS 3 Zrotation Yrotation Xrotation
					JOINT RightArm
					{
						OFFSET -2.700000 1.550000 -0.730000
						CHANNELS 3 Zrotation Yrotation Xrotation
						JOINT RightForeArm
						{
							OFFSET -5.450000 0.000000 0.000000
							CHANNELS 3 Zrotation Yrotation Xrotation
							JOINT RightHand
							{
								OFFSET -3.450000 0.000000 0.000000
								CHANNELS 3 Zrotation Yrotation Xrotation
								JOINT RightHandIndex1
								{
									OFFSET -0.750000 0.000000 0.000000
									CHANNELS 3 Zrotation Yrotation Xrotation
									End Site
									{
										OFFSET 0.000000 0.000000 0.000000
									}
								}
							}
						}
					}
				}
			}
		}
	}
}
MOTION
Frames: 9
Frame Time: 0.016667
-0.795300 16.481050 -3.214330 -176.719207 -14.858106 176.269781 -15.511864 13.012685 2.629957 10.667235 -1.106935 -10.125108 -12.603675 13.128776 30.228173 0.630475 6.721292 2.143598 0.234770 0.178290 0.123340 17.879393 -9.823580 4.357567 -18.678421 5.468327 -32.296813 29.301168 -14.307424 27.909899 -0.722792 -6.584407 2.179073 -0.074630 -0.174110 -0.213790 -2.704196 -1.595693 -8.533435 -1.751768 1.854552 13.105914 3.062964 2.094827 -9.220659 2.744804 3.678446 -8.555455 4.659841 -3.433622 45.627484 2.956740 -1.826640 0.281720 -30.926159 -1.429734 2.217294 -52.295091 11.363050 -8.932841 1.208133 -8.753589 -0.730533 -3.438896 2.909404 0.266500 -0.160110 -0.021250 0.085860 26.801407 1.715344 3.858757 47.310916 -12.524600 -11.262089 -7.745159 17.493814 -1.579822 2.494633 -1.245013 0.010890 -0.004510 -0.151450 -0.139340 
-0.762470 16.512620 -3.298170 -176.441053 -12.681465 176.673539 -15.563032 13.102681 2.505201 10.077697 -0.863870 -9.945831 -10.786790 12.519911 30.517044 0.607543 6.526790 2.224062 0.177310 0.103600 0.097410 17.823974 -9.880057 4.320142 -18.016014 5.436632 -31.150539 30.020658 -13.294354 24.947333 -0.636597 -6.226377 2.311730 -0.120690 -0.155050 -0.211220 -2.508733 -1.587538 -8.336786 -3.389375 2.243053 11.545467 6.099711 2.410224 -10.261177 2.346035 3.765109 -8.296462 5.063749 -3.222905 45.119865 2.048140 -0.933120 2.445480 -28.669242 1.089674 2.224186 -56.382515 14.045912 -10.443958 -1.595521 -7.991442 -0.749854 -3.496113 2.848883 0.250020 -0.135380 -0.045670 0.073630 25.670076 -0.490927 3.081482 46.530892 -13.296273 -11.304862 -10.217905 16.383622 -1.617686 2.541977 -1.250315 -0.001670 -0.026830 -0.132770 -0.142450 
-0.727870 16.560030 -3.372940 -176.166840 -10.624854 176.838279 -15.606427 13.227661 2.416290 9.383517 -0.663839 -9.677964 -8.904513 11.845681 30.857383 0.592888 6.299799 2.308536 0.153890 0.066190 0.110730 17.757927 -9.980572 4.259588 -17.095408 5.339502 -29.603724 30.187309 -12.293860 22.357049 -0.580483 -5.852363 2.456540 -0.158190 -0.176270 -0.219920 -2.321004 -1.591076 -8.192556 -4.952848 2.530173 10.383786 8.999902 2.763523 -11.589687 2.007315 3.825534 -8.496543 5.407238 -3.024731 46.379958 1.428010 0.036820 3.941990 -26.614297 3.046469 2.563075 -60.315426 17.170997 -12.300825 -4.424043 -7.484724 -0.846834 -3.506272 2.763398 0.267610 -0.146700 -0.029040 0.067290 24.581485 -2.107033 2.697904 45.962075 -14.585545 -11.586223 -12.437269 15.863197 -1.634615 2.588355 -1.239227 -0.005470 -0.041180 -0.144250 -0.153430 
-0.687740 16.612720 -3.441350 -175.793964 -8.529371 177.118713 -15.636675 13.374740 2.342358 8.553415 -0.506282 -9.524240 -6.724253 10.924394 30.944060 0.547051 5.990667 2.412627 0.121190 0.014890 0.121350 17.699464 -10.119682 4.186536 -15.526618 5.375783 -28.469637 29.304466 -11.320098 20.625157 -0.515503 -5.445559 2.611360 -0.203910 -0.205600 -0.223850 -2.164531 -1.571901 -8.054908 -6.389446 2.631349 9.456840 11.934477 3.117451 -13.389358 1.662060 3.882239 -8.804847 5.840896 -2.957929 47.729193 0.558660 1.120940 5.118620 -24.054408 5.259187 2.977508 -64.260125 20.460225 -14.271532 -8.010822 -6.533985 -1.047533 -3.529144 2.652207 0.302490 -0.162600 -0.006720 0.048840 22.879976 -3.959866 2.319350 45.572316 -15.682141 -11.858334 -14.046856 15.685963 -1.575850 2.626575 -1.208593 -0.013050 -0.059140 -0.142550 -0.173300 
-0.644390 16.667270 -3.499750 -175.327373 -6.469146 177.288297 -15.648799 13.507608 2.293073 7.914030 -0.355846 -9.592373 -4.636928 10.186015 31.442957 0.528266 5.780235 2.476755 0.082730 -0.043460 0.132290 17.658992 -10.284581 4.098584 -13.621481 5.500467 -27.438504 27.772393 -10.434477 19.587045 -0.442490 -5.046181 2.766797 -0.255170 -0.239800 -0.230150 -2.058850 -1.493179 -7.937405 -7.562842 2.775415 9.013894 14.702285 3.753480 -15.219747 1.180963 3.990239 -9.178568 6.541098 -2.914569 48.639912 -0.352670 2.466540 6.404190 -21.412340 7.799373 3.898313 -67.238399 25.399120 -17.905843 -14.417927 -9.397359 -1.372255 -3.501982 2.563366 0.328970 -0.178620 0.010250 0.023690 21.182175 -6.046524 1.748642 44.985921 -16.611228 -12.126385 -15.188918 16.024373 -1.513670 2.663825 -1.180063 -0.017540 -0.086100 -0.138180 -0.195610 
-0.604510 16.727130 -3.549970 -175.154532 -4.869628 177.447428 -15.665303 13.663847 2.277150 6.831169 -0.309708 -9.627606 -2.316599 9.193555 31.699376 0.496856 5.495802 2.561402 0.073420 -0.077090 0.172360 17.610606 -10.460634 3.978158 -11.922782 5.310946 -26.226338 25.677656 -9.516819 18.536862 -0.373832 -4.600037 2.934324 -0.296400 -0.294420 -0.233930 -1.941711 -1.487438 -7.819792 -9.179528 2.707660 8.590049 17.723415 4.132461 -16.678234 0.691411 3.985097 -9.985796 7.036393 -2.765715 50.443007 -0.945450 3.875390 7.186510 -18.689012 9.393399 5.295308 -70.062479 30.204405 -21.202983 -22.922567 -10.218150 -1.770248 -3.456666 2.494059 0.374060 -0.212010 0.046190 0.000250 19.399670 -7.332028 1.513717 44.544929 -17.640366 -12.479447 -16.414538 16.577871 -1.478614 2.694850 -1.153857 -0.014160 -0.114080 -0.148470 -0.225310 
-0.572960 16.784500 -3.597170 -175.190054 -3.549525 177.623002 -15.670363 13.788595 2.298964 5.472506 -0.343072 -9.639209 -0.080714 8.215386 32.093642 0.460191 5.283452 2.627663 0.062250 -0.115620 0.210030 17.577006 -10.653460 3.832263 -10.365954 4.897270 -24.961555 23.171115 -8.644037 17.571318 -0.305117 -4.160015 3.096291 -0.330810 -0.338690 -0.232940 -1.864438 -1.442452 -7.701999 -10.775560 2.538115 8.078566 20.322525 4.435968 -18.029803 0.317785 4.060894 -10.842161 7.635648 -2.986532 52.358902 -1.998240 5.153480 7.906530 -16.257890 10.625655 6.673062 -71.013246 34.579258 -23.146497 -32.412681 -8.973052 -2.484701 -3.404456 2.462920 0.427530 -0.237890 0.080530 -0.021050 17.594333 -8.504455 1.400416 44.389757 -18.750901 -12.784375 -17.517714 17.012488 -1.410198 2.715111 -1.125300 -0.023030 -0.131380 -0.152600 -0.257020 
-0.555020 16.828870 -3.636910 -175.216071 -2.379548 177.767409 -15.662060 13.911981 2.357220 4.286043 -0.419209 -9.748351 1.894222 7.328990 32.427557 0.443682 5.100176 2.682459 0.054360 -0.129540 0.235200 17.551109 -10.821776 3.715299 -9.005518 4.462455 -23.810652 20.790599 -7.879337 16.715360 -0.244878 -3.763699 3.251201 -0.351730 -0.377080 -0.245660 -1.817873 -1.445777 -7.669713 -11.386463 2.138754 8.033790 21.647930 4.676096 -19.435938 0.207091 3.923152 -11.460943 7.675723 -2.841533 54.002365 -2.677100 6.354360 8.074430 -14.220621 12.040411 7.630733 -69.730884 38.569449 -23.478713 -41.821578 -6.321961 -3.661205 -3.326037 2.490210 0.460890 -0.263750 0.109550 -0.037030 15.644353 -9.826851 1.248801 44.651056 -19.374000 -12.995956 -18.273594 17.294952 -1.325880 2.739370 -1.089591 -0.026600 -0.136920 -0.160330 -0.275800 
-0.542290 16.858190 -3.671990 -175.320057 -0.677436 177.612915 -15.659932 14.027355 2.416787 3.412132 -0.324193 -9.348592 3.138733 6.821398 32.691766 0.448726 5.029694 2.690296 0.067940 -0.115940 0.257650 17.525805 -10.930901 3.629243 -7.988104 4.152942 -22.702669 18.959012 -7.314658 16.109775 -0.218901 -3.481841 3.354760 -0.357930 -0.413880 -0.241410 -1.746665 -1.515104 -7.682601 -11.518556 1.901517 7.996632 22.369057 4.967121 -20.201092 0.314290 3.402797 -11.977526 6.770039 -2.202502 56.214735 -2.847730 7.280780 7.571240 -12.710685 13.049429 8.286228 -67.026412 41.956115 -22.620435 -51.166300 -3.031191 -5.449627 -3.230794 2.588087 0.489390 -0.291150 0.143070 -0.048950 13.971605 -10.518502 1.301151 44.763798 -19.561260 -12.934873 -18.446816 16.710086 -1.135314 2.762802 -1.057435 -0.012050 -0.146260 -0.162700 -0.287100 
